<svg  xmlns="http://www.w3.org/2000/svg" xmlns:xlink="http://www.w3.org/1999/xlink" viewBox="0 0 842 666">
  <g class="interactive_g" id="visor"  style="isolation: isolate">
    <path d="M186,410c39.95-.64,103.53,7.34,136,12,45.6,6.54,65.82,9.48,109,18,63,12.43,112.67,31.78,168,45,16,3.33,24,1.67,40,5,7.71,6.09,60-6.07,69,5,.33,2.33-3.33,4.67-3,7a419.33,419.33,0,0,1-50,50c-53.75,45.64-91.61,87.08-170,102-37.75,7.19-89.89-4-108-10-36.57-12.2-64-22.36-99-37-71.45-29.88-170.86-69-255-13-11.71.63-13.77-1.11-17-9,10.61-17.6,25.52-28.19,39-40,31.86-27.9,60-59.95,92-88l39-44Z" fill-rule="evenodd"/>
  </g>
  <g class="interactive_g" id="crown"  style="isolation: isolate">
    <path d="M574,32c45.64,2.83,83.39,21.39,114,34,92.72,38.21,148,118.4,148,271,0,53.5,1.56,143.7-14,160-12,1.67-20,2.33-32,4-8.67-.67-20.33,1.67-29,1-5.88,1.11-18.26,1.73-27,0-26.18-.36-24.85-13.12-44-10-14.67,1.33-45.48,7.39-51-1-57.73-7.71-94.41-21-154-37-10.4-2.31-18.4-4.56-29-7-30.87-7.18-66.27-15.18-110-21-47.27-6.29-126.21-21.55-173-9q5-33,10-66c.67-12.67,3.33-29.33,4-42,7-43.39,15.21-79.23,31-117C262.62,85.27,368.18,38.9,512,36V33c-1.39-3.64-2.83-8.89-1-13,9.36-22.1,57.53-13.42,62,0Q573.5,26,574,32Z" fill-rule="evenodd"/>
  </g>
  <g  id="shadow_image" data-name="shadow Image">
    <image id="shadow_Image-2" data-name="shadow Image" width="842" height="666" xlink:href="cap1.png"/>
  </g>
</svg>
